<?xml version="1.0" encoding="UTF-8"?>
<svg id="bee" xmlns="http://www.w3.org/2000/svg" viewBox="0 0 600 600">
  <path d="M299.81,557.99c-4.06,0-7.66-2.73-8.77-6.64-1.33-4.73,1.4-9.75,6.1-11.19l1.05-.32c.27-.09.68-.22,1.16-.4,1.87-.67,3.87-1.52,5.93-2.5,7.38-3.52,14.44-8.29,20.98-14.15,9.64-8.63,17.82-19.62,23.67-31.76,6.99-14.31,11.5-31.95,13.06-50.99l.47-7.44.19-9.58-.06-3.13c-.02-.97-.04-1.95-.11-2.74l-.08-1.35c-.04-.75-.08-1.51-.15-2.31l-.35-3.83c-1.18-10.52-3.49-21.2-6.88-31.75-6.83-21.19-18.18-43.05-32.83-63.23-14.83-20.52-32.75-39.18-53.27-55.45-21.19-16.77-44.25-30.16-68.52-39.79-25.24-9.97-51.17-15.47-77.06-16.33l-6.09-.12h-1.17s-2.55,0-2.55,0l-4.8.1-1.41.06c-1.15.04-2.3.09-3.44.16-6.55.36-12.91,1.05-18.92,2.05-13.45,2.26-24.87,6.12-33.97,11.49-10.2,5.96-17.57,14.26-20.76,23.37-3.24,8.89-2.83,19.39,1.15,29.55,3.46,8.82,9.5,17.5,17.47,25.1,7.01,6.66,15.19,12.47,24.33,17.27,4.12,2.17,8.5,4.16,13.01,5.94,4.22,1.71,8.6,3.23,12.99,4.53,7.64,2.26,15.84,4.02,25.06,5.38,9.51,1.33,19.42,2,29.47,2,4.17,0,8.33-.11,12.73-.34,11.45-.59,20.66-1.79,27.41-2.77,3.17-.45,5.6-.83,7.23-1.12l2.46-.41c.26-.04.44-.06.62-.06,1.6,0,2.95,1.15,3.21,2.72.27,1.6-.69,3.17-2.24,3.66l-2.46.78c-1.62.52-4.03,1.24-7.19,2.15-6.05,1.66-15.54,4.08-27.96,5.9-10.29,1.45-19.91,2.16-29.39,2.16-5.15,0-10.34-.21-15.42-.63-9.13-.7-18.4-2.22-27.58-4.52-10.44-2.59-20.34-6.2-29.41-10.74-11.2-5.6-20.54-11.98-28.55-19.51-10-9.36-17.39-19.81-21.96-31.07-2.7-6.74-4.27-13.54-4.67-20.23-.46-7.36.54-14.84,2.9-21.63,2.34-6.81,6.23-13.44,11.27-19.17,4.65-5.27,10.35-9.96,16.93-13.94,11.14-6.7,24.27-11.36,40.15-14.24,6.76-1.2,13.83-2.03,21-2.47,1.3-.09,2.59-.15,3.89-.21l1.4-.06,5.33-.14,2.53-.03h1.38s6.64.09,6.64.09c27.69.74,56.59,6.65,83.58,17.11,26.01,10.06,50.81,24.34,73.7,42.45,21.95,17.39,41.14,37.35,57.06,59.33,16.1,22.16,28.11,45.31,35.7,68.79,3.93,12.34,6.52,24.37,7.69,35.75.24,2.66.51,5.79.63,9.01.07,1.13.08,2.06.09,2.98l.04,3.48-.12,5c-.04,1.83-.09,3.66-.16,5.47l-.58,8.22c-1.91,21.39-7.23,41.37-15.38,57.76-9.05,18.4-20.47,30.5-28.46,37.42-7.98,6.93-16.61,12.55-25.66,16.71-2.66,1.22-5.26,2.26-7.72,3.11-.92.32-1.59.52-2.19.7l-.85.24c-.81.23-1.65.34-2.48.34Z"/>
  <path d="M114,415.31c-1.88,0-3.77-.03-5.67-.09-9.67-.34-18.38-1.57-26.61-3.75-4.74-1.29-9-2.84-13.02-4.76-2.11-1-4.2-2.16-6.22-3.44l-.34-.22c-.91-.6-1.77-1.16-2.6-1.82l-.51-.39c-.31-.23-.62-.47-.96-.75l-1.56-1.34c-.78-.69-1.07-.98-1.57-1.47l-.91-.9-.58-.62c-.56-.6-1.12-1.19-1.66-1.82-1.45-1.64-2.84-3.43-4.16-5.35-2.68-3.83-4.69-7.95-5.98-12.25-1.3-4.29-1.88-8.88-1.67-13.27.2-3.87,1.04-7.88,2.51-11.93,2.84-7.74,7.25-13.34,10.32-16.87,3.15-3.56,6.64-6.77,10.67-9.81,3.6-2.67,6.3-4.22,7.93-5.06,1.03-.54,1.86-.92,2.58-1.23.37-.16.64-.27.75-.3l.23-.07c.57-.19,1.17-.28,1.77-.28,2.49,0,4.68,1.59,5.45,3.97.85,2.62-.29,5.48-2.7,6.8-.19.1-.46.23-.65.45l-1.08.84c-1.3,1.06-3.26,2.72-5.59,5.08-2.83,2.84-5.39,5.88-7.6,9.04-2.03,2.87-4.78,7.41-6.31,12.72-1.41,5.19-1.3,9.93.33,14.51.9,2.45,2.23,4.91,3.94,7.32.96,1.34,1.92,2.52,2.93,3.62.33.38.72.78,1.11,1.18l.54.56c.17.15.34.31.54.51.76.73,1.14,1.08,1.39,1.23l.58.48c.14.11.34.26.55.41l.34.25c.42.32.88.63,1.34.94l.55.37c1.42.91,2.85,1.71,4.29,2.4,2.94,1.42,6.26,2.64,9.85,3.64,6.42,1.76,13.81,2.84,22.58,3.3,2.64.14,5.38.21,8.16.21,4.94,0,10.16-.23,15.51-.67,7.97-.68,15.71-1.7,23.03-3.02,6.69-1.2,13.64-2.75,21.27-4.75,6.14-1.64,12.39-3.61,18.57-5.85,10.12-3.68,19.49-8.16,25.71-12.3,2.3-1.48,4.34-2.99,6.06-4.49.54-.46.95-.85,1.25-1.13l.95-.9c1.12-1.06,2.59-1.65,4.13-1.65,1.67,0,3.22.67,4.36,1.88,2.13,2.25,2.2,5.72.17,8.07l-.59.68c-.48.55-1.01,1.17-1.72,1.88-1.38,1.44-3.7,3.69-7.01,6.27-3.4,2.63-7.35,5.24-11.73,7.76-4.72,2.71-10.11,5.37-16.01,7.93-5.61,2.45-12.03,4.83-19.63,7.28-7.28,2.33-14.86,4.33-22.51,5.95-9.11,1.93-17.18,3.23-24.67,3.96-7.19.73-13.86,1.09-20.42,1.09Z"/>
  <path d="M300.18,557.99c-.83,0-1.66-.11-2.47-.34l-.83-.24c-.6-.18-1.28-.39-2.2-.71-2.47-.85-5.07-1.89-7.73-3.11-9.04-4.16-17.67-9.78-25.65-16.71-7.99-6.91-19.41-19.02-28.46-37.41-8.16-16.39-13.48-36.37-15.39-57.79l-.58-8.23c-.08-1.81-.12-3.65-.16-5.51l-.12-4.97.04-3.47c0-.91.02-1.83.09-2.93.12-3.23.38-6.24.63-9.05,1.17-11.38,3.75-23.41,7.69-35.75,7.6-23.48,19.61-46.63,35.7-68.79,15.92-21.98,35.11-41.94,57.06-59.33,22.89-18.11,47.68-32.39,73.7-42.45,26.98-10.46,55.89-16.37,83.59-17.11l6.64-.09h1.38s2.53.03,2.53.03l5.34.14,1.38.06c1.29.06,2.58.12,3.87.21,7.18.44,14.25,1.27,21.01,2.47,15.87,2.88,29.01,7.53,40.14,14.24,6.57,3.98,12.27,8.67,16.93,13.94,5.04,5.73,8.94,12.36,11.27,19.16,2.36,6.79,3.36,14.27,2.9,21.64-.4,6.69-1.98,13.5-4.67,20.24-4.58,11.25-11.97,21.7-21.96,31.06-8.02,7.52-17.35,13.9-28.55,19.51-9.07,4.54-18.97,8.16-29.41,10.74-9.18,2.3-18.45,3.82-27.57,4.51-5.09.42-10.27.64-15.42.64-9.48,0-19.1-.71-29.4-2.16-12.42-1.82-21.91-4.24-27.97-5.91-3.15-.9-5.56-1.63-7.18-2.15l-2.47-.78c-.84-.26-1.52-.83-1.92-1.6-.4-.77-.48-1.66-.22-2.49.43-1.37,1.68-2.29,3.11-2.29.18,0,.36.01.54.05l2.55.43c1.63.28,4.06.66,7.22,1.12,6.74.98,15.95,2.18,27.41,2.77,4.4.23,8.56.34,12.73.34,10.05,0,19.96-.67,29.46-2,9.22-1.36,17.42-3.12,25.06-5.38,4.39-1.29,8.77-2.82,13-4.53,4.51-1.77,8.89-3.77,13-5.94,9.14-4.8,17.32-10.61,24.32-17.27,7.98-7.61,14.02-16.29,17.47-25.11,3.99-10.16,4.4-20.65,1.15-29.56-3.19-9.09-10.56-17.39-20.76-23.36-9.09-5.36-20.52-9.23-33.96-11.48-6.01-1-12.37-1.68-18.93-2.05-1.13-.07-2.28-.12-3.43-.16l-1.39-.06-4.81-.1h-2.55s-1.17,0-1.17,0l-6.08.12c-25.91.87-51.83,6.36-77.07,16.34-24.27,9.64-47.33,23.02-68.52,39.79-20.52,16.28-38.44,34.93-53.27,55.45-14.64,20.17-25.99,42.04-32.82,63.22-3.38,10.56-5.7,21.24-6.87,31.73l-.35,3.85c-.07.8-.11,1.55-.15,2.3l-.08,1.37c-.07.78-.08,1.77-.1,2.75l-.06,3.08.19,9.58.46,7.46c1.56,19.07,6.08,36.7,13.06,51.02,5.85,12.14,14.03,23.13,23.67,31.76,6.55,5.87,13.6,10.63,20.98,14.15,2.07.98,4.07,1.83,5.95,2.51.47.17.88.31,1.15.39l1.04.32c2.33.71,4.24,2.29,5.39,4.44,1.14,2.15,1.38,4.62.67,6.94-1.18,3.86-4.68,6.45-8.72,6.45Z"/>
  <path d="M486,415.31c-6.55,0-13.23-.36-20.41-1.09-7.5-.74-15.56-2.04-24.67-3.97-7.66-1.62-15.23-3.63-22.52-5.95-7.6-2.45-14.02-4.82-19.62-7.27-5.91-2.55-11.29-5.22-16.01-7.93-4.38-2.52-8.33-5.14-11.73-7.76-3.31-2.58-5.63-4.82-6.99-6.25-.73-.74-1.27-1.36-1.64-1.8l-.68-.77c-2.17-2.5-1.9-6.3.59-8.48,1.09-.95,2.49-1.47,3.94-1.47,1.54,0,3,.58,4.11,1.62l.98.93c.3.29.71.68,1.26,1.14,1.17,1.02,3.18,2.64,6.06,4.49,6.21,4.13,15.59,8.61,25.7,12.29,6.19,2.24,12.44,4.21,18.57,5.85,7.63,2,14.58,3.55,21.27,4.75,7.31,1.32,15.06,2.34,23.02,3.02,5.35.44,10.57.67,15.51.67h0c2.77,0,5.52-.07,8.15-.21,8.78-.46,16.16-1.54,22.58-3.3,3.6-1,6.91-2.22,9.86-3.64,1.44-.69,2.87-1.49,4.26-2.38l.57-.38c.47-.31.93-.62,1.36-.95l.33-.24c.21-.15.42-.3.57-.43l.66-.53c.15-.09.54-.44,1.3-1.17.2-.19.37-.35.43-.41l.63-.64c.39-.4.78-.81,1.14-1.22.98-1.06,1.94-2.25,2.91-3.59,1.71-2.42,3.04-4.88,3.94-7.32,1.64-4.58,1.75-9.32.34-14.5-1.54-5.33-4.29-9.87-6.32-12.74-2.21-3.15-4.77-6.2-7.6-9.04-2.32-2.36-4.28-4.02-5.56-5.06l-1.09-.84c-.18-.22-.41-.33-.51-.38-1.49-.82-2.47-2.03-2.9-3.5-.43-1.47-.26-3.02.47-4.36,1.01-1.84,2.93-2.98,5.03-2.98.6,0,1.19.09,1.76.28l.31.09s.3.12.67.28c.71.31,1.55.69,2.57,1.23,1.64.84,4.34,2.4,7.94,5.07,4.02,3.03,7.51,6.24,10.67,9.81,3.06,3.53,7.46,9.13,10.31,16.87,1.46,4.05,2.31,8.06,2.51,11.93.21,4.38-.37,8.97-1.67,13.27-1.3,4.3-3.31,8.42-5.98,12.25-1.33,1.92-2.72,3.72-4.15,5.33-.55.65-1.11,1.24-1.67,1.83l-.62.66-.88.86c-.49.49-.78.78-1.58,1.47l-1.56,1.34c-.33.28-.64.5-.94.74l-.51.38c-.83.66-1.69,1.22-2.6,1.82l-.36.24c-2,1.27-4.09,2.43-6.2,3.43-4.02,1.92-8.28,3.47-13.03,4.76-8.23,2.18-16.93,3.41-26.61,3.75-1.89.06-3.78.09-5.67.09Z"/>
  <path d="M293.64,398.47c-1.33,0-2.8-.09-4.26-.18-.75-.04-1.5-.09-2.23-.12-1.54-.07-3.02-.19-4.49-.31l-1.9-.15c-1.9-.13-3.91-.33-6.15-.63-2.05-.22-4.03-.51-5.98-.8-2.06-.29-3.9-.56-5.7-.92-1.87-.34-3.67-.68-5.41-1.06-1.77-.36-3.44-.71-5.04-1.12-1.63-.39-3.18-.79-4.65-1.2-1.49-.38-2.88-.77-4.19-1.18-2.52-.76-4.82-1.52-6.87-2.26-1.9-.7-3.46-1.29-4.55-1.76l-1.32-.59-.59-.3c-5.19-3.14-6.89-10.01-3.71-15.27,2.04-3.37,5.61-5.39,9.55-5.39,1.95,0,3.87.52,5.57,1.5l.27.22c.12.09.27.21.49.36l.22.15c.61.43,1.54,1.07,2.79,1.77,1.51.87,3.2,1.8,5.2,2.7,2.35,1.12,4.78,2.13,7.19,2.98,3.09,1.15,6.01,2.06,8.91,2.8,1.63.47,3.41.87,4.97,1.22,1.63.41,3.38.7,5.08.99l.22.04c2.01.36,3.82.64,5.52.84l.49.07c1.7.23,3.46.46,5.17.54.68.04,1.35.09,2.03.15,1.18.09,2.37.19,3.71.22l5.96.18,1.04-.03c3.53-.1,7.18-.2,10.7-.51,1.74-.08,3.49-.31,5.18-.54l.52-.07c1.69-.19,3.5-.47,5.52-.84l.21-.04c1.69-.28,3.44-.57,5.1-.99,1.54-.34,3.31-.74,4.97-1.22,2.87-.73,5.79-1.64,8.9-2.79,2.4-.85,4.83-1.85,7.19-2.98,1.99-.89,3.67-1.82,5.19-2.7,1.25-.7,2.17-1.34,2.79-1.77l.21-.15c.27-.18.38-.29.47-.37l.31-.23c1.95-1.44,4.25-2.2,6.65-2.2,3.55,0,6.92,1.7,9.03,4.55,1.78,2.41,2.51,5.37,2.07,8.33-.45,2.96-2.02,5.57-4.43,7.35-.61.45-1.26.84-1.94,1.16l-1.92.88c-1.07.46-2.63,1.05-4.53,1.75-2.04.74-4.34,1.5-6.85,2.26-1.32.42-2.71.8-4.18,1.18-1.49.42-3.03.82-4.65,1.2-1.62.42-3.3.76-5.04,1.12-1.76.39-3.56.73-5.41,1.06-1.82.36-3.66.63-5.71.92-1.96.3-3.94.58-5.96.8-2.27.29-4.27.5-6.16.63l-1.91.15c-1.46.12-2.94.24-4.42.31-4.18.3-8.48.34-12.63.38h-.27s-6.36-.08-6.36-.08Z"/>
  <path d="M293.13,456.53c-1.43,0-3.03-.11-4.58-.21-.82-.05-1.63-.1-2.42-.14-1.72-.08-3.36-.24-4.99-.4l-1.89-.18c-1.98-.16-4.08-.4-6.63-.77-1.96-.24-3.99-.55-6.42-.98-1.98-.32-4.09-.68-6.12-1.13-2.38-.48-4.16-.88-5.79-1.29-1.77-.41-3.62-.85-5.39-1.37-1.74-.47-3.38-.95-4.95-1.45-1.58-.47-3.06-.95-4.44-1.44-2.53-.87-4.96-1.78-7.23-2.72-1.93-.8-3.57-1.53-4.74-2.09l-1.35-.68-.59-.33c-2.23-1.42-3.8-3.68-4.38-6.33-.58-2.64-.1-5.36,1.36-7.64,1.87-2.93,5.07-4.68,8.55-4.68,1.89,0,3.73.53,5.34,1.53l.07.07.98.69c.69.46,1.75,1.17,3.17,1.95,1.54.87,3.44,1.9,5.71,2.92,2.55,1.2,5.19,2.29,7.86,3.22,3.33,1.22,6.51,2.22,9.7,3.03,1.79.51,3.73.95,5.41,1.32,1.9.47,3.89.81,5.75,1.12,2.3.42,4.21.71,6,.91l.86.11c1.74.23,3.54.46,5.29.55l3.01.22c1.11.09,2.11.16,3.23.18l6.47.18,1.02-.03c3.87-.1,7.87-.21,11.73-.56,1.78-.09,3.56-.32,5.29-.55l.89-.11c1.77-.2,3.68-.49,6-.91,1.85-.3,3.83-.64,5.76-1.12,1.73-.38,3.6-.8,5.41-1.32,3.17-.81,6.34-1.8,9.69-3.03,2.65-.93,5.3-2.02,7.86-3.23,2.26-1.01,4.16-2.04,5.71-2.92,1.43-.79,2.48-1.49,3.18-1.96l.2-.13.9-.66c1.81-1.32,3.88-2,6.05-2,3.24,0,6.31,1.56,8.22,4.17,3.31,4.53,2.32,10.9-2.21,14.21-.42.31-.91.6-1.36.84l-1.87.96c-1.15.56-2.79,1.28-4.72,2.08-2.28.94-4.7,1.85-7.22,2.72-1.4.5-2.87.98-4.44,1.44-1.58.51-3.22.99-4.94,1.45-1.8.53-3.73.99-5.39,1.37-1.64.42-3.42.82-5.79,1.29-2.05.46-4.16.82-6.13,1.13-2.45.43-4.48.74-6.41.98-2.57.37-4.67.62-6.64.78l-1.89.18c-1.63.15-3.28.31-4.93.39-4.5.35-9.13.41-13.6.47h-.33s-6.87-.11-6.87-.11Z"/>
  <path d="M292.2,507.65c-1.27,0-2.68-.1-4.07-.19-.72-.05-1.43-.09-2.12-.13-1.52-.07-2.98-.21-4.43-.35l-1.65-.15c-1.77-.14-3.63-.36-5.85-.68-1.75-.21-3.54-.48-5.67-.86-2.05-.33-3.74-.63-5.4-1-1.77-.36-3.47-.72-5.11-1.13-1.56-.36-3.2-.75-4.76-1.21-1.54-.41-2.99-.84-4.37-1.27-1.4-.41-2.71-.82-3.93-1.25-2.09-.69-4.18-1.48-6.38-2.4-1.76-.74-3.19-1.37-4.19-1.85l-1.2-.6-.53-.29c-4.19-2.66-5.46-8.31-2.76-12.55,1.68-2.65,4.56-4.24,7.71-4.24,1.68,0,3.33.47,4.76,1.35l.74.54.29.19c.6.4,1.51.99,2.71,1.64,1.11.61,2.85,1.54,5.03,2.53,2.28,1.08,4.62,2.03,6.93,2.83,2.93,1.07,5.73,1.94,8.55,2.65,1.58.45,3.29.83,4.77,1.15,1.7.42,3.51.72,5.07.97,1.99.36,3.67.61,5.29.79l.75.09c1.54.2,3.12.4,4.67.48.66.04,1.31.09,1.95.14,1.13.09,2.26.18,3.54.21l5.7.16.87-.02c3.42-.09,6.95-.18,10.37-.48,1.56-.07,3.13-.28,4.65-.47l.8-.1c1.6-.18,3.29-.43,5.29-.79,1.55-.25,3.36-.55,5.08-.98,1.45-.31,3.17-.7,4.77-1.15,2.79-.7,5.59-1.57,8.54-2.65,2.3-.8,4.63-1.75,6.93-2.83,2.17-.98,3.91-1.92,5.03-2.53,1.2-.64,2.11-1.24,2.71-1.64l.24-.16.83-.6c1.62-1.17,3.47-1.77,5.4-1.77,2.93,0,5.71,1.42,7.42,3.79,1.43,1.98,2.01,4.4,1.62,6.81-.39,2.41-1.69,4.53-3.67,5.96-.37.27-.81.53-1.21.74l-1.65.85c-.98.47-2.41,1.1-4.17,1.84-2.21.92-4.3,1.71-6.36,2.39-1.24.44-2.55.85-3.93,1.25-1.4.44-2.85.87-4.37,1.27-1.58.46-3.22.85-4.76,1.21-1.66.42-3.36.78-5.11,1.14-1.68.37-3.37.67-5.41,1-2.15.38-3.94.65-5.66.86-2.25.32-4.1.54-5.86.68l-1.66.15c-1.45.14-2.9.28-4.37.35-3.99.31-8.09.36-12.06.41h-.25s-6.07-.09-6.07-.09Z"/>
  <path d="M301.3,207.71c-3.06,0-6.17-.05-9.25-.14-10.34-.33-22.45-.91-35.41-3.61-5.65-1.22-12.36-2.97-19.25-6.7-3.72-2.04-6.79-4.34-9.39-7.03-3.01-3.06-5.38-6.97-6.68-11.01-.64-1.85-1.08-3.9-1.34-6.31-.11-.74-.12-1.41-.14-2.13,0-.33-.04-1.38-.04-1.38v-.52s.06-1.72.06-1.72c.15-3.38.54-6.71,1.21-10.49,1.21-6.7,3.16-13.32,5.78-19.67,5.39-13.24,13.64-24.72,23.87-33.21,10.07-8.43,23.07-14.05,36.59-15.82,1.62-.27,3.23-.4,4.79-.52l2.41-.2,5.29-.12h.77s2.08.07,2.58.08c.89.02,1.78.04,2.8.11l4.84.42,4.53.68c3.42.64,6.22,1.31,8.78,2.09,10.9,3.28,21.23,9.25,29.1,16.81,6.72,6.37,12.36,14.01,16.77,22.7,3.29,6.44,5.78,13.04,7.61,20.19,1.2,4.63,2.01,9.3,2.43,13.86.13,1.64.22,2.91.23,3.8l.04,1.36-.07,2.51-.09.91c-.08.78-.18,1.7-.35,2.63-.45,2.21-1.05,4.64-2.34,7.27-1.01,2.11-2.85,5.25-5.97,8.32-4.95,4.92-12.01,8.76-20.98,11.41-7.45,2.23-16.08,3.7-27.14,4.65-7.28.52-14.7.78-22.04.78ZM236.38,170.25c.01.3.03.63.11.95.11.77.29,1.78.67,2.69.64,1.72,1.59,3.17,2.99,4.51,1.38,1.34,3.18,2.59,5.35,3.68,3.92,1.97,9,3.59,14.69,4.68,11.06,2.14,22.49,2.57,32.21,2.7,1.87.01,3.72.02,5.54.02,10.18,0,17.6-.22,24.05-.72,9.27-.59,17.21-1.75,23.61-3.46,6.04-1.58,11.11-4.03,13.91-6.71,2.49-2.33,3.28-4.46,3.75-6.41l.09-.45c.02-.11.03-.2.06-.3l.08-.34.12-2.06v-.79c0-.61-.03-1.6-.09-2.89-.24-3.77-.78-7.48-1.66-11.35-1.33-5.94-3.3-11.69-5.87-17.07-3.46-7.33-7.88-13.7-13.13-18.92-6.54-6.51-14.47-11.29-22.91-13.81-2.01-.63-4.22-1.17-7.14-1.74l-3.73-.58-3.64-.35c-.81-.08-1.77-.1-2.74-.13-.5-.01-2.81-.09-2.81-.09l-4.53.17-2.02.2c-1.43.13-2.72.25-4,.49-10.99,1.62-21.06,6.11-29.1,12.98-8.03,6.84-14.52,16.41-18.79,27.66-2.07,5.41-3.55,10.97-4.39,16.55-.43,2.85-.69,5.66-.74,8.13l-.02,2.74h.08Z"/>
  <path d="M261.46,201.93c-.76,0-1.53-.1-2.27-.29-4.86-1.25-7.79-6.22-6.54-11.08.04-.16.09-.34.14-.5l.63-1.98c.29-.9.67-2.01,1.16-3.28l1.01-2.59c.75-1.94,1.55-4.23,2.38-6.81l1.25-4.23c.27-.97.49-1.96.73-2.98.14-.6,1.02-4.37,1.02-4.37l.46-2.74c.1-.67.22-1.33.34-2,.21-1.2.42-2.43.57-3.69.09-1.01.19-2,.29-3.01.31-3.04.62-6.18.58-9.47,0-.76.02-1.53.05-2.3.05-1.41.1-2.86-.01-4.33l-.4-6.73c-.03-1.86-.31-3.76-.58-5.59l-1.17-8.23-1.58-6.9c-.21-.82-.38-1.63-.56-2.43-.32-1.46-.65-2.96-1.13-4.42-.54-1.61-1.06-3.23-1.57-4.83-.86-2.69-1.74-5.48-2.73-8.11l-4.98-11.84c-1.14-2.43-2.33-4.67-3.48-6.83-.63-1.19-1.25-2.35-1.83-3.49l-2.38-4.56c-.51-.98-1.08-1.86-1.63-2.7-.29-.44-.57-.88-.83-1.31l-7.81-12.37c-1.33-2.11-.69-4.9,1.41-6.23.72-.45,1.55-.69,2.39-.69,1.46,0,2.84.7,3.69,1.88l8.66,12.09c.3.44.63.89.97,1.35.6.83,1.23,1.69,1.79,2.61l2.81,4.67c.66,1.12,1.36,2.27,2.07,3.45,1.37,2.26,2.79,4.6,4.15,7.09l6.06,12.34c1.25,2.84,2.39,5.8,3.59,8.93.61,1.58,1.22,3.17,1.85,4.77.59,1.48,1.02,3.01,1.48,4.63.25.87.49,1.75.77,2.61l2.15,7.41,1.81,8.9c.43,2.1.84,4.09,1.01,6.13l.89,7.61c.21,1.59.25,3.22.3,4.8.02.87.05,1.74.1,2.6.26,3.8.1,7.53-.05,11.13-.04,1-.08,1.99-.12,2.97-.09,1.45-.25,2.89-.41,4.3-.08.74-.17,1.48-.24,2.2l-.34,3.12-.84,4.9c-.21,1.24-.42,2.45-.66,3.6l-1.16,5c-.74,2.91-1.53,5.68-2.27,7.97l-.92,2.81c-.06.19-.13.32-.19.4-.19.29-.23.46-.27.61l-.82,3.18c-1.04,4.02-4.65,6.83-8.8,6.83Z"/>
  <path d="M338.54,201.93c-3.97,0-7.46-2.55-8.66-6.34-.05-.16-.1-.31-.14-.47l-.8-3.1c-.06-.26-.1-.42-.21-.59-.17-.26-.23-.38-.27-.51l-.92-2.83c-.74-2.29-1.53-5.06-2.28-7.99l-1.16-5c-.24-1.14-.45-2.34-.66-3.59l-.85-4.96-.33-3.07c-.07-.71-.15-1.45-.24-2.19-.16-1.41-.32-2.85-.41-4.33-.03-.95-.07-1.94-.11-2.94-.15-3.6-.31-7.33-.05-11.13.05-.87.08-1.74.1-2.61.04-1.58.09-3.2.29-4.79l.89-7.59c.18-2.07.58-4.05,1.01-6.15l1.83-8.99,2.14-7.35c.27-.85.51-1.72.76-2.6.46-1.62.89-3.14,1.48-4.62.63-1.59,1.24-3.19,1.85-4.77,1.2-3.13,2.34-6.09,3.61-8.97l6.06-12.34c1.34-2.45,2.75-4.79,4.12-7.04.72-1.19,1.42-2.35,2.09-3.48l2.8-4.66c.56-.92,1.18-1.78,1.78-2.61.34-.46.67-.91.98-1.37l8.65-12.08c.85-1.18,2.22-1.89,3.67-1.89.95,0,1.85.29,2.63.85,1.93,1.39,2.46,4.05,1.19,6.07l-7.8,12.37c-.27.45-.55.88-.84,1.33-.55.85-1.12,1.73-1.63,2.7l-2.38,4.56c-.59,1.15-1.21,2.32-1.84,3.52-1.14,2.16-2.33,4.39-3.45,6.77l-4.98,11.84c-1,2.67-1.88,5.45-2.74,8.14-.51,1.61-1.03,3.23-1.57,4.85-.49,1.46-.82,2.96-1.13,4.42-.18.81-.35,1.61-.55,2.41l-1.57,6.84-1.18,8.29c-.27,1.84-.55,3.74-.59,5.65l-.4,6.71c-.11,1.46-.06,2.91-.01,4.32.03.77.05,1.54.05,2.31-.04,3.28.27,6.43.58,9.47.1,1,.2,1.99.29,2.97.15,1.29.36,2.52.57,3.72.12.67.23,1.33.33,1.98l.45,2.69.61,2.6c.15.63.29,1.23.43,1.83.23,1.02.46,2.01.72,2.95l1.25,4.23c.83,2.61,1.63,4.9,2.38,6.83l1.02,2.6c.49,1.27.87,2.38,1.16,3.28l.63,1.98c.74,2.31.53,4.78-.58,6.94-1.12,2.16-3,3.75-5.32,4.49-.9.29-1.83.43-2.77.43Z"/>
  <path d="M296.33,343.71c-.81,0-1.71-.05-2.59-.1l-1.23-.06-1.88-.12c-1.9-.12-3.7-.23-5.5-.46-1.96-.22-4.5-.52-6.92-.92-2.54-.43-4.52-.8-6.23-1.17-2.21-.49-3.9-.9-5.32-1.29-1.59-.44-3.01-.85-4.21-1.25-1.17-.39-2.16-.73-2.87-1.01l-.88-.37-.43-.22c-2.48-1.5-4.27-3.94-4.99-6.83-.71-2.89-.26-5.89,1.28-8.43,2.04-3.37,5.61-5.38,9.55-5.38,1.9,0,3.78.49,5.45,1.43l.07.09.18.17c.31.28.74.67,1.42,1.1.7.47,1.54,1.03,2.61,1.56,1.23.67,2.45,1.24,3.71,1.74,1.64.68,3.18,1.22,4.69,1.64,1.66.49,3.49,1,5.48,1.33.94.19,1.93.36,2.94.49,1.03.16,2.06.31,3.03.36.36.02.7.05,1.05.08.61.05,1.22.11,2,.13l3.26.11.77-.02c1.84-.06,3.74-.12,5.59-.3.99-.05,1.99-.2,2.96-.34,1.1-.14,2.1-.32,3.07-.51,1.96-.32,3.78-.83,5.46-1.32,1.49-.41,3.03-.95,4.7-1.65,1.24-.48,2.46-1.06,3.72-1.75,1.12-.57,2.04-1.19,2.59-1.56.66-.42,1.09-.82,1.36-1.05.12-.1.21-.21.28-.32,2.03-1.49,4.33-2.24,6.73-2.24,3.59,0,6.87,1.64,9.01,4.51,1.8,2.4,2.55,5.36,2.12,8.34-.43,2.97-1.99,5.59-4.4,7.39-.66.49-1.44.95-2.26,1.31l-1.25.54c-.68.27-1.67.61-2.85,1-1.19.4-2.61.81-4.2,1.25-1.42.39-3.11.8-5.33,1.29-1.71.37-3.69.75-6.23,1.17-2.42.4-4.96.7-6.9.92-1.79.23-3.59.34-5.5.46l-1.86.12c-2.42.16-4.93.18-7.35.19h-.17s-3.68-.03-3.68-.03Z"/>
</svg>